<svg width="132" height="68" viewBox="0 0 132 68" fill="none" xmlns="http://www.w3.org/2000/svg">
<path d="M41.4085 46.0949C41.4085 52.9694 35.232 58.6254 27.505 58.6254C19.778 58.6254 13.6015 52.9694 13.6015 46.0949C13.6015 39.2205 19.778 33.5644 27.505 33.5644C35.232 33.5644 41.4085 39.2205 41.4085 46.0949Z" fill="white" stroke="#9350FF"/>
<path d="M43.0164 14.0082C43.0164 11.2467 45.255 9.00815 48.0164 9.00815H60.7154C66.2383 9.00815 70.7154 13.4853 70.7154 19.0081V23.0644C70.7154 28.5873 66.2383 33.0644 60.7154 33.0644H48.0164C45.255 33.0644 43.0164 30.8259 43.0164 28.0644V14.0082Z" fill="#9350FF"/>
<path d="M43.0164 39.0668C43.0164 36.3054 45.255 34.0668 48.0164 34.0668H60.7154C66.2383 34.0668 70.7154 38.5439 70.7154 44.0668V48.1231C70.7154 53.6459 66.2383 58.1231 60.7154 58.1231H48.0164C45.255 58.1231 43.0164 55.8845 43.0164 53.1231V39.0668Z" fill="#9350FF"/>
<rect x="16.9254" y="10.5105" width="22.2672" height="20.0493" fill="#9350FF" stroke="#9350FF"/>
<path d="M75.3823 51.6582C75.3823 51.1462 75.4736 50.6825 75.6562 50.2671C75.8424 49.8481 76.0913 49.4919 76.4028 49.1982C76.7143 48.901 77.0742 48.6719 77.4824 48.5107C77.8942 48.3496 78.3275 48.269 78.7822 48.269C79.1331 48.269 79.4608 48.3335 79.7651 48.4624C80.0731 48.5913 80.3398 48.7686 80.5654 48.9941C80.791 49.2161 80.9682 49.4793 81.0971 49.7837C81.2261 50.0845 81.2905 50.4085 81.2905 50.7559C81.2905 51.2464 81.2028 51.6976 81.0273 52.1094C80.8554 52.5212 80.6173 52.8774 80.313 53.1782C80.0122 53.479 79.6541 53.7135 79.2387 53.8818C78.827 54.0501 78.3812 54.1343 77.9013 54.1343C77.5397 54.1343 77.2049 54.0698 76.8969 53.9409C76.5926 53.8084 76.3276 53.6312 76.102 53.4092C75.8764 53.1836 75.6992 52.9204 75.5703 52.6196C75.445 52.3188 75.3823 51.9984 75.3823 51.6582ZM77.1333 51.4595C77.1333 51.617 77.1566 51.762 77.2031 51.8945C77.2497 52.0234 77.3141 52.1362 77.3965 52.2329C77.4824 52.326 77.5827 52.3994 77.6972 52.4531C77.8154 52.5033 77.9425 52.5283 78.0786 52.5283C78.2648 52.5283 78.4456 52.4889 78.6211 52.4102C78.7965 52.3278 78.9523 52.2168 79.0884 52.0771C79.228 51.9339 79.339 51.7674 79.4214 51.5776C79.5037 51.3843 79.5449 51.1766 79.5449 50.9546C79.5449 50.772 79.518 50.6144 79.4643 50.4819C79.4142 50.3459 79.3462 50.2331 79.2602 50.1436C79.1743 50.054 79.074 49.9878 78.9594 49.9448C78.8449 49.8983 78.7231 49.875 78.5942 49.875C78.3901 49.875 78.1985 49.918 78.0195 50.0039C77.8441 50.0863 77.6901 50.1991 77.5576 50.3423C77.4287 50.4855 77.3248 50.6538 77.2461 50.8472C77.1709 51.0369 77.1333 51.241 77.1333 51.4595ZM81.7309 51.6582C81.7309 51.1462 81.8222 50.6825 82.0049 50.2671C82.1911 49.8481 82.4399 49.4919 82.7514 49.1982C83.063 48.901 83.4228 48.6719 83.831 48.5107C84.2428 48.3496 84.6761 48.269 85.1308 48.269C85.4817 48.269 85.8094 48.3335 86.1137 48.4624C86.4217 48.5913 86.6885 48.7686 86.914 48.9941C87.1396 49.2161 87.3169 49.4793 87.4458 49.7837C87.5747 50.0845 87.6391 50.4085 87.6391 50.7559C87.6391 51.2464 87.5514 51.6976 87.376 52.1094C87.2041 52.5212 86.966 52.8774 86.6616 53.1782C86.3608 53.479 86.0027 53.7135 85.5874 53.8818C85.1756 54.0501 84.7298 54.1343 84.25 54.1343C83.8883 54.1343 83.5535 54.0698 83.2456 53.9409C82.9412 53.8084 82.6762 53.6312 82.4507 53.4092C82.2251 53.1836 82.0478 52.9204 81.9189 52.6196C81.7936 52.3188 81.7309 51.9984 81.7309 51.6582ZM83.4819 51.4595C83.4819 51.617 83.5052 51.762 83.5517 51.8945C83.5983 52.0234 83.6627 52.1362 83.7451 52.2329C83.831 52.326 83.9313 52.3994 84.0459 52.4531C84.164 52.5033 84.2912 52.5283 84.4272 52.5283C84.6134 52.5283 84.7942 52.4889 84.9697 52.4102C85.1452 52.3278 85.3009 52.2168 85.437 52.0771C85.5766 51.9339 85.6876 51.7674 85.77 51.5776C85.8524 51.3843 85.8935 51.1766 85.8935 50.9546C85.8935 50.772 85.8667 50.6144 85.813 50.4819C85.7628 50.3459 85.6948 50.2331 85.6089 50.1436C85.5229 50.054 85.4227 49.9878 85.3081 49.9448C85.1935 49.8983 85.0718 49.875 84.9428 49.875C84.7387 49.875 84.5472 49.918 84.3681 50.0039C84.1927 50.0863 84.0387 50.1991 83.9062 50.3423C83.7773 50.4855 83.6735 50.6538 83.5947 50.8472C83.5195 51.0369 83.4819 51.241 83.4819 51.4595ZM88.9389 45.6426H91.834L90.749 50.3369H91.3613L92.2153 49.4292L92.4463 48.4355H94.9009L94.5625 49.9072H93.8105L92.5483 51.105L93.2734 52.5283H94.1113L93.7676 54H92.1509L91.0981 51.8193H90.4053L89.9057 54H88.0796L89.6694 47.1143H88.6006L88.9389 45.6426ZM95.6904 48.4355H98.5478L97.6025 52.5283H98.6284L98.2846 54H95.4272L96.3725 49.9072H95.3467L95.6904 48.4355ZM96.9096 46.6416C96.9096 46.5091 96.9329 46.3856 96.9795 46.271C97.0296 46.1528 97.0976 46.0508 97.1836 45.9648C97.2695 45.8789 97.3698 45.8109 97.4844 45.7607C97.6025 45.7106 97.7296 45.6855 97.8657 45.6855C97.9946 45.6855 98.1164 45.7106 98.2309 45.7607C98.3455 45.8109 98.4458 45.8789 98.5317 45.9648C98.6177 46.0508 98.6857 46.1528 98.7358 46.271C98.7859 46.3856 98.811 46.5091 98.811 46.6416C98.811 46.7741 98.7859 46.8994 98.7358 47.0176C98.6857 47.1322 98.6177 47.2324 98.5317 47.3184C98.4458 47.4043 98.3455 47.4723 98.2309 47.5225C98.1164 47.5726 97.9946 47.5977 97.8657 47.5977C97.7296 47.5977 97.6025 47.5726 97.4844 47.5225C97.3698 47.4723 97.2695 47.4043 97.1836 47.3184C97.0976 47.2324 97.0296 47.1322 96.9795 47.0176C96.9329 46.8994 96.9096 46.7741 96.9096 46.6416ZM99.8691 48.4355H102.694L102.608 48.8921V48.8867C102.77 48.765 102.936 48.6611 103.108 48.5752C103.28 48.4893 103.457 48.423 103.64 48.3765C103.822 48.3263 104.01 48.3013 104.204 48.3013C104.515 48.3013 104.787 48.3532 105.02 48.457C105.253 48.5609 105.439 48.7095 105.579 48.9028C105.718 49.0962 105.806 49.3343 105.842 49.6172C105.881 49.8965 105.86 50.2134 105.777 50.5679L105.321 52.5283H106.336L105.998 54H103.145L103.838 51.0083C103.871 50.8722 103.88 50.7487 103.865 50.6377C103.854 50.5231 103.826 50.4264 103.779 50.3477C103.736 50.2653 103.675 50.2026 103.597 50.1597C103.521 50.1167 103.434 50.0952 103.333 50.0952C103.151 50.0952 102.925 50.165 102.657 50.3047C102.517 50.3763 102.372 50.4694 102.222 50.584L101.432 54H99.5469L100.492 49.9072H99.5254L99.8691 48.4355ZM110.568 53.5757C110.436 53.6903 110.255 53.7887 110.026 53.8711C109.786 53.957 109.517 54 109.22 54C108.937 54 108.656 53.9499 108.377 53.8496C108.101 53.7493 107.854 53.6007 107.636 53.4038C107.417 53.2069 107.24 52.9616 107.104 52.668C106.968 52.3743 106.9 52.0342 106.9 51.6475C106.9 51.1676 106.988 50.7236 107.163 50.3154C107.342 49.9072 107.586 49.5545 107.894 49.2573C108.205 48.9565 108.57 48.722 108.989 48.5537C109.412 48.3854 109.867 48.3013 110.353 48.3013C110.493 48.3013 110.631 48.3138 110.767 48.3389C110.907 48.3604 111.037 48.3908 111.159 48.4302C111.281 48.466 111.46 48.5519 111.696 48.688L111.788 48.3013H113.608L112.346 53.769C112.221 54.3169 112.045 54.7681 111.82 55.1226C111.598 55.4806 111.335 55.7635 111.03 55.9712C110.729 56.1789 110.391 56.3239 110.015 56.4062C109.639 56.4886 109.236 56.5298 108.807 56.5298C108.237 56.5298 107.743 56.4635 107.324 56.3311C106.909 56.2021 106.563 56.0303 106.288 55.8154L107.233 54.3975C107.448 54.5514 107.695 54.6785 107.974 54.7788C108.253 54.8826 108.556 54.9346 108.882 54.9346C109.064 54.9346 109.242 54.9185 109.414 54.8862C109.585 54.854 109.745 54.7931 109.892 54.7036C110.038 54.6141 110.167 54.4906 110.278 54.333C110.389 54.179 110.473 53.9803 110.531 53.7368L110.568 53.5757ZM110.783 51.9697C110.862 51.8945 110.934 51.8068 110.998 51.7065L111.288 50.4604C111.163 50.2671 111.041 50.14 110.923 50.0791C110.805 50.0146 110.687 49.9681 110.568 49.9395C110.45 49.9108 110.325 49.8965 110.192 49.8965C109.999 49.8965 109.815 49.9359 109.639 50.0146C109.464 50.0898 109.31 50.1937 109.177 50.3262C109.048 50.4551 108.944 50.609 108.866 50.7881C108.787 50.9635 108.748 51.1533 108.748 51.3574C108.748 51.5293 108.774 51.6797 108.828 51.8086C108.882 51.9375 108.955 52.0449 109.048 52.1309C109.141 52.2168 109.249 52.283 109.371 52.3296C109.492 52.3726 109.623 52.394 109.763 52.394C109.881 52.394 109.999 52.3797 110.117 52.3511C110.239 52.3188 110.355 52.2723 110.466 52.2114C110.581 52.147 110.687 52.0664 110.783 51.9697Z" fill="#9350FF"/>
<path d="M3.59065 57.1703L3.55059 55.2566L6.42041 55.8667C6.11185 55.4358 5.95266 54.9859 5.94285 54.5173C5.93706 54.2407 5.98534 53.981 6.08771 53.7383C6.19007 53.4957 6.33218 53.2849 6.51402 53.1059C6.69579 52.9238 6.91255 52.7801 7.16431 52.6748C7.41274 52.5664 7.6818 52.5097 7.97147 52.5047C8.28718 52.4993 8.58577 52.5316 8.86724 52.6017C9.14872 52.6718 9.40968 52.7731 9.65014 52.9057C9.89059 53.0383 10.1088 53.199 10.3049 53.3877C10.4977 53.5765 10.6632 53.7853 10.8015 54.0141C10.9365 54.2429 11.0426 54.4901 11.1198 54.7558C11.197 55.0182 11.2385 55.2926 11.2445 55.579C11.2498 55.8296 11.2172 56.0629 11.1468 56.279C11.0765 56.4951 10.9841 56.6724 10.8698 56.8111L11.1838 56.879L11.2043 57.8554L4.41494 56.4187L4.43456 57.356L3.59065 57.1703ZM6.78737 54.7323C6.79221 54.9634 6.84427 55.1953 6.94357 55.428C7.03954 55.6575 7.17093 55.8685 7.33776 56.061L10.031 56.6351C10.1366 56.5486 10.2266 56.4152 10.301 56.2349C10.3753 56.0513 10.4094 55.813 10.4033 55.5201C10.398 55.2695 10.3424 55.023 10.2364 54.7807C10.1271 54.5384 9.97446 54.3229 9.77842 54.1341C9.57904 53.9422 9.33814 53.7885 9.05572 53.6728C8.77329 53.5572 8.45306 53.5025 8.09504 53.5086C7.88674 53.5122 7.70184 53.5446 7.54032 53.606C7.37556 53.6674 7.23734 53.7528 7.12568 53.8622C7.01394 53.9683 6.92872 54.0967 6.87001 54.2475C6.81124 54.395 6.78369 54.5566 6.78737 54.7323ZM10.6611 48.2393C10.8121 48.4548 10.9257 48.6727 11.002 48.8927C11.0749 49.1096 11.1138 49.3352 11.1187 49.5695C11.1245 49.8462 11.0762 50.1058 10.9738 50.3485C10.8715 50.5912 10.7294 50.8036 10.5476 50.9858C10.3658 51.1647 10.1507 51.3084 9.90223 51.4168C9.65047 51.522 9.37976 51.5771 9.09009 51.5821C8.61815 51.5902 8.18354 51.5146 7.78624 51.3554C7.38894 51.1962 7.04575 50.9774 6.75666 50.6991C6.4675 50.4176 6.24086 50.0894 6.07673 49.7145C5.91253 49.3364 5.82597 48.9342 5.81704 48.5079C5.81193 48.2638 5.84456 48.0337 5.91492 47.8176C5.98203 47.6016 6.07274 47.4242 6.18705 47.2855L5.92209 47.2266L5.90154 46.2454L10.1401 47.1494L10.1237 46.3635L10.9674 46.5395L11.0045 48.3116L10.6611 48.2393ZM10.2742 49.3545C10.2717 49.2341 10.2545 49.1123 10.2226 48.9891C10.1906 48.8627 10.1507 48.7429 10.1027 48.6298C10.0548 48.5167 10.0005 48.4101 9.93976 48.3103C9.87581 48.2104 9.81047 48.122 9.74374 48.045L7.02587 47.4616C6.92024 47.5481 6.83186 47.6814 6.76075 47.8617C6.68639 48.0421 6.65223 48.2771 6.6583 48.5667C6.66354 48.8173 6.7208 49.0638 6.83006 49.3061C6.93607 49.5484 7.08872 49.7639 7.28802 49.9526C7.48407 50.1413 7.72494 50.2935 8.01062 50.409C8.29305 50.5247 8.61327 50.5794 8.97129 50.5733C9.1796 50.5697 9.36613 50.5372 9.53089 50.4758C9.6924 50.4144 9.82903 50.3307 9.94076 50.2246C10.0525 50.1185 10.1378 49.9917 10.1965 49.8442C10.252 49.6935 10.2779 49.5302 10.2742 49.3545ZM7.28512 41.1819C7.15602 41.2362 7.04357 41.3081 6.94776 41.3977C6.85189 41.484 6.77257 41.583 6.70979 41.6947C6.64701 41.8065 6.60071 41.9278 6.57089 42.0585C6.54107 42.1892 6.52762 42.3246 6.53055 42.4645C6.5343 42.6435 6.58551 42.8347 6.68419 43.0381C6.77955 43.2384 6.91857 43.4248 7.10126 43.5975C7.28388 43.7669 7.50657 43.9063 7.76934 44.0158C8.0321 44.1252 8.3311 44.1771 8.66634 44.1713C8.91044 44.1672 9.12613 44.1277 9.31341 44.0528C9.49743 43.978 9.65165 43.8794 9.77606 43.7568C9.90047 43.6342 9.99356 43.4926 10.0553 43.332C10.1138 43.1715 10.1412 43.0017 10.1374 42.8227C10.1347 42.6925 10.1224 42.5707 10.1005 42.4571C10.0753 42.3436 10.0373 42.2368 9.98634 42.1367C9.93208 42.0335 9.86325 41.9337 9.77984 41.8375C9.69642 41.7412 9.59352 41.647 9.47112 41.5547L9.98845 40.8377C10.1701 40.9615 10.3261 41.1021 10.4564 41.2594C10.5834 41.4168 10.6878 41.5826 10.7696 41.757C10.8514 41.9314 10.9105 42.1128 10.947 42.301C10.9867 42.4858 11.0084 42.6694 11.0123 42.8517C11.0192 43.1836 10.9671 43.4922 10.8558 43.7773C10.7413 44.0593 10.582 44.3046 10.378 44.5132C10.1739 44.7185 9.93311 44.8822 9.65566 45.0041C9.37488 45.1229 9.07176 45.185 8.74628 45.1906C8.30364 45.1982 7.89669 45.1222 7.52543 44.9625C7.15091 44.8029 6.82739 44.5903 6.55484 44.3247C6.2823 44.0592 6.06925 43.7584 5.91571 43.4225C5.75883 43.0833 5.67675 42.7396 5.66946 42.3914C5.66606 42.2287 5.67892 42.0657 5.70807 41.9024C5.73395 41.7391 5.7795 41.5821 5.84472 41.4312C5.90668 41.2804 5.98674 41.139 6.08492 41.0071C6.18309 40.8752 6.29943 40.756 6.43395 40.6495L6.42118 40.0393L7.26376 40.1616L7.28512 41.1819ZM3.2069 38.8393L3.16735 36.9501L7.89648 37.9581L7.88504 37.4113L6.44425 35.7756L5.67886 35.608L5.64452 33.9678L6.48843 34.1535L6.49937 34.6759L8.14533 36.5474L9.90175 35.2964L9.88897 34.6862L10.7229 34.8624L10.7453 35.9315L8.48737 37.4889L8.49984 38.0845L10.8006 38.5725L10.8212 39.5586L4.03191 38.122L4.05081 39.0251L3.2069 38.8393ZM3.08335 32.9373L3.04329 31.0236L5.91311 31.6338C5.60454 31.2028 5.44536 30.753 5.43554 30.2843C5.42975 30.0077 5.47804 29.748 5.5804 29.5054C5.68277 29.2627 5.82487 29.0519 6.00671 28.873C6.18848 28.6908 6.40525 28.5471 6.65701 28.4419C6.90544 28.3334 7.17449 28.2767 7.46416 28.2717C7.77987 28.2663 8.07846 28.2987 8.35994 28.3687C8.64141 28.4388 8.90238 28.5401 9.14283 28.6727C9.38329 28.8054 9.60154 28.966 9.79759 29.1547C9.99039 29.3435 10.1559 29.5523 10.2942 29.7811C10.4292 30.0099 10.5353 30.2572 10.6125 30.5228C10.6897 30.7852 10.7312 31.0596 10.7372 31.346C10.7425 31.5966 10.7099 31.8299 10.6395 32.046C10.5692 32.2621 10.4768 32.4395 10.3625 32.5782L10.6765 32.646L10.697 33.6224L3.90763 32.1858L3.92726 33.1231L3.08335 32.9373ZM6.28007 30.4994C6.28491 30.7304 6.33697 30.9623 6.43626 31.195C6.53223 31.4245 6.66363 31.6355 6.83045 31.828L9.5237 32.4021C9.62934 32.3156 9.71934 32.1822 9.79371 32.0019C9.868 31.8183 9.90209 31.5801 9.89596 31.2872C9.89071 31.0366 9.83508 30.7901 9.72908 30.5477C9.61982 30.3054 9.46716 30.0899 9.27111 29.9012C9.07174 29.7093 8.83084 29.5555 8.54841 29.4399C8.26598 29.3242 7.94576 29.2695 7.58774 29.2756C7.37944 29.2792 7.19453 29.3117 7.03302 29.373C6.86826 29.4345 6.73004 29.5199 6.61837 29.6292C6.50664 29.7353 6.42142 29.8637 6.36271 30.0145C6.30394 30.162 6.27639 30.3236 6.28007 30.4994ZM8.37592 27.4992C8.09601 27.504 7.82678 27.4744 7.56823 27.4105C7.30961 27.3433 7.06668 27.2481 6.83945 27.1251C6.61214 26.9987 6.40549 26.8476 6.21947 26.6718C6.03339 26.4926 5.87298 26.2952 5.73822 26.0793C5.60347 25.8635 5.4977 25.6325 5.42092 25.3864C5.34407 25.1371 5.30285 24.8789 5.29726 24.6121C5.29025 24.2769 5.34395 23.965 5.45838 23.6766C5.56956 23.3882 5.72711 23.138 5.93106 22.9262C6.13174 22.7144 6.37082 22.5475 6.64827 22.4255C6.9224 22.3004 7.21895 22.2351 7.53791 22.2296C7.82107 22.2248 8.09359 22.2559 8.35547 22.323C8.61735 22.3902 8.86194 22.4869 9.08924 22.6132C9.31647 22.7363 9.52472 22.8858 9.71399 23.0616C9.90326 23.2374 10.0653 23.4348 10.2001 23.6539C10.3349 23.8697 10.4407 24.1023 10.5175 24.3517C10.5944 24.6011 10.6356 24.8608 10.6413 25.1309C10.6484 25.4694 10.5963 25.7812 10.4851 26.0664C10.3706 26.3516 10.2113 26.6001 10.0074 26.812C9.80345 27.0238 9.56275 27.1907 9.2853 27.3127C9.00452 27.4314 8.70139 27.4936 8.37592 27.4992ZM8.28621 26.4801C8.51404 26.4762 8.72167 26.4401 8.90908 26.3717C9.09317 26.3002 9.25067 26.2031 9.3816 26.0804C9.50926 25.9577 9.60876 25.8112 9.68007 25.6406C9.74813 25.4702 9.78005 25.2841 9.77583 25.0823C9.77085 24.8447 9.71394 24.6145 9.60509 24.3918C9.49617 24.1657 9.34714 23.9681 9.15801 23.7987C8.96888 23.6294 8.74304 23.4949 8.48048 23.3953C8.21785 23.2923 7.93031 23.2435 7.61786 23.2489C7.39003 23.2528 7.18573 23.2921 7.00496 23.3668C6.82413 23.4383 6.66991 23.537 6.54231 23.6629C6.41471 23.7888 6.31851 23.9369 6.2537 24.1073C6.18557 24.2745 6.15358 24.4574 6.15774 24.6559C6.16278 24.8968 6.21973 25.1286 6.32858 25.3513C6.43411 25.5709 6.58144 25.7654 6.77057 25.9347C6.95645 26.104 7.17904 26.2386 7.43834 26.3383C7.69764 26.4381 7.98027 26.4853 8.28621 26.4801ZM5.37227 20.9628L5.33231 19.0541L5.85237 19.1672C5.6555 18.9395 5.5005 18.6898 5.38737 18.4183C5.27418 18.1435 5.21437 17.8531 5.20797 17.5472C5.20252 17.2868 5.23667 17.0518 5.31042 16.8422C5.38411 16.6293 5.4993 16.4548 5.65598 16.3186C5.81267 16.1825 6.00937 16.0912 6.24608 16.0448C6.48279 15.9984 6.75975 16.0083 7.07696 16.0745L9.50036 16.5897L9.48534 15.8721L10.329 16.0481L10.3648 17.7567L7.22016 17.083C6.8342 16.9984 6.54514 17.0327 6.35299 17.1857C6.16084 17.3388 6.06851 17.5943 6.07601 17.9523C6.08132 18.2061 6.14169 18.446 6.25712 18.6719C6.3693 18.8979 6.52518 19.1118 6.72475 19.3134L10.4138 20.0951L10.4345 21.0861L6.19594 20.182L6.21618 21.1486L5.37227 20.9628ZM7.91898 13.6037C7.96461 13.6062 8.00374 13.6088 8.03635 13.6115C8.06897 13.6142 8.09992 13.6153 8.12921 13.6148C8.33426 13.6112 8.52398 13.5754 8.69837 13.5073C8.8727 13.436 9.02373 13.3406 9.15147 13.2212C9.27588 13.0986 9.37381 12.9553 9.44526 12.7913C9.51339 12.6241 9.54541 12.4429 9.54133 12.2476C9.53588 11.9872 9.47862 11.7408 9.36957 11.5083C9.25719 11.2725 9.09843 11.0766 8.8933 10.9206L9.40544 10.1891C9.55422 10.2972 9.6888 10.4268 9.80917 10.5777C9.92954 10.7287 10.034 10.8962 10.1225 11.0803C10.2077 11.2644 10.2737 11.4618 10.3205 11.6726C10.3704 11.8802 10.3976 12.0929 10.4022 12.311C10.4088 12.6234 10.3628 12.9172 10.2644 13.1924C10.1659 13.4643 10.0195 13.7045 9.82527 13.9129C9.63095 14.1181 9.39181 14.2817 9.10785 14.4038C8.82056 14.5226 8.49465 14.5852 8.13012 14.5914C7.71026 14.5986 7.31491 14.5322 6.94406 14.392C6.56988 14.2487 6.24337 14.0491 5.96453 13.7935C5.68236 13.5346 5.45778 13.2275 5.29081 12.8723C5.12383 12.517 5.03598 12.1311 5.02726 11.7145C5.02051 11.3923 5.06985 11.105 5.17526 10.8525C5.27736 10.5968 5.41607 10.3795 5.5914 10.2007C5.76673 10.0219 5.97061 9.88494 6.20305 9.7898C6.43548 9.69466 6.67537 9.64497 6.92273 9.64073C7.08873 9.63789 7.25004 9.64489 7.40667 9.66174C7.55999 9.67539 7.70364 9.69409 7.83763 9.71784L7.91898 13.6037ZM5.85998 11.8321C5.86406 12.0274 5.89883 12.2107 5.96428 12.3821C6.02967 12.5503 6.11915 12.7034 6.23274 12.8415C6.34633 12.9795 6.47911 13.101 6.63108 13.2058C6.78304 13.3106 6.94762 13.3957 7.12481 13.461L7.06451 10.5808C6.86265 10.581 6.68584 10.6117 6.5341 10.6729C6.37903 10.7309 6.25221 10.8161 6.15363 10.9285C6.05172 11.0377 5.97633 11.1692 5.92746 11.3231C5.87859 11.4769 5.85609 11.6466 5.85998 11.8321Z" fill="#9350FF"/>
</svg>
